<svg width="268" height="70" viewBox="0 0 268 70" fill="none" xmlns="http://www.w3.org/2000/svg">
<g clip-path="url(#clip0_21_1183)">
<path opacity="0.65" d="M29.7826 59.6234C33.8937 59.6234 37.227 46.2767 37.227 29.8117C37.227 13.3466 33.8937 0 29.7826 0C25.6714 0 22.3381 13.3466 22.3381 29.8117C22.3381 46.2767 25.6714 59.6234 29.7826 59.6234Z" fill="url(#paint0_linear_21_1183)"/>
<path opacity="0.65" d="M36.2293 33.5381C44.4516 19.2786 48.2313 6.0517 44.6716 3.99457C41.1104 1.93584 31.5586 11.8273 23.3362 26.0868C15.1139 40.3463 11.3343 53.5732 14.8939 55.6304C18.4551 57.6891 28.0069 47.7976 36.2293 33.5381Z" fill="url(#paint1_linear_21_1183)"/>
<path opacity="0.65" d="M33.5048 36.2656C47.7481 28.0338 57.6267 18.4695 55.5719 14.9059C53.5155 11.3406 40.3036 15.1261 26.062 23.3578C11.8187 31.5895 1.93848 41.1539 3.99487 44.7175C6.05126 48.2828 19.2631 44.4989 33.5048 36.2656Z" fill="url(#paint2_linear_21_1183)"/>
<path opacity="0.65" d="M29.7826 37.2646C46.2289 37.2646 59.5604 33.9275 59.5604 29.8117C59.5604 25.6958 46.2289 22.3588 29.7826 22.3588C13.3363 22.3588 0.00488281 25.6958 0.00488281 29.8117C0.00488281 33.9275 13.3363 37.2646 29.7826 37.2646Z" fill="url(#paint3_linear_21_1183)"/>
<path opacity="0.65" d="M55.5719 44.7175C57.6283 41.1522 47.7481 31.5895 33.5048 23.3578C19.2615 15.126 6.04966 11.3421 3.99487 14.9058C1.93848 18.4711 11.8187 28.0338 26.062 36.2655C40.3052 44.4972 53.5171 48.2812 55.5719 44.7175Z" fill="url(#paint4_linear_21_1183)"/>
<path opacity="0.65" d="M44.6716 55.6304C48.2328 53.5717 44.4516 40.3447 36.2292 26.0868C28.0069 11.8273 18.455 1.93584 14.8938 3.99457C11.3326 6.0533 15.1138 19.2802 23.3362 33.5381C31.5585 47.7976 41.112 57.6875 44.6716 55.6304Z" fill="url(#paint5_linear_21_1183)"/>
<path d="M89.2601 51.7843C86.1947 51.7843 83.3413 51.2337 80.6983 50.1341C78.0552 49.0345 75.7358 47.4992 73.7448 45.5251C71.7538 43.5525 70.2011 41.2385 69.09 38.5829C67.9774 35.9273 67.4226 33.0259 67.4226 29.8772C67.4226 26.7284 67.9582 23.8175 69.0311 21.1411C70.1039 18.4664 71.6183 16.1539 73.571 14.1989C75.5238 12.2455 77.8129 10.7278 80.4368 9.64734C83.0607 8.56531 85.9253 8.02429 89.0274 8.02429C92.1295 8.02429 94.9176 8.53658 97.3885 9.55956C99.8593 10.5841 101.957 11.9502 103.682 13.6563C105.405 15.3639 106.631 17.2614 107.36 19.3473L99.4863 23.1025C98.7578 21.0549 97.4841 19.3569 95.6652 18.0099C93.8448 16.663 91.6338 15.9895 89.029 15.9895C86.4243 15.9895 84.2786 16.5784 82.3625 17.7546C80.4464 18.9324 78.9623 20.5522 77.9086 22.6189C76.8549 24.6872 76.3288 27.105 76.3288 29.874C76.3288 32.6429 76.8836 35.0703 77.9947 37.1577C79.1057 39.2452 80.6281 40.8762 82.5633 42.0524C84.497 43.2302 86.7303 43.8175 89.2586 43.8175C91.2113 43.8175 93.0414 43.4472 94.747 42.7067C96.4511 41.9678 97.83 40.8953 98.8853 39.4909C99.939 38.0881 100.465 36.3997 100.465 34.4271V30.9001L104.544 34.3138H89.0306V26.9167H109.373V31.4124C109.373 34.8644 108.797 37.8711 107.65 40.4325C106.5 42.994 104.957 45.1181 103.024 46.8066C101.088 48.4951 98.9236 49.7463 96.5308 50.5618C94.1349 51.3757 91.7119 51.7859 89.2617 51.7859V51.7827L89.2601 51.7843Z" fill="white"/>
<path d="M115.835 51.1012V8.70728H144.623V16.39H124.741V26.007H143.474V33.6897H124.741V43.42H144.623V51.1027H115.835V51.1012Z" fill="white"/>
<path d="M172.062 51.7842C168.844 51.7842 165.857 51.2352 163.097 50.1357C160.341 49.0361 157.935 47.4896 155.885 45.4979C153.837 43.5062 152.237 41.1826 151.087 38.527C149.938 35.8714 149.364 32.9891 149.364 29.8787C149.364 26.7683 149.927 23.8845 151.059 21.2304C152.189 18.5748 153.778 16.2608 155.828 14.2882C157.876 12.3157 160.28 10.7804 163.04 9.67922C165.796 8.57963 168.804 8.03064 172.061 8.03064C175.318 8.03064 178.324 8.57963 181.082 9.67922C183.84 10.7804 186.245 12.3157 188.293 14.2882C190.343 16.2608 191.933 18.5748 193.063 21.2304C194.193 23.8861 194.758 26.7699 194.758 29.8787C194.758 32.9875 194.182 35.873 193.034 38.527C191.885 41.1826 190.286 43.5062 188.236 45.4979C186.188 47.4896 183.784 49.0361 181.024 50.1357C178.268 51.2352 175.278 51.7842 172.061 51.7842H172.064H172.062ZM172.062 43.8174C174.015 43.8174 175.828 43.4775 177.492 42.7929C179.159 42.1098 180.624 41.1523 181.887 39.9202C183.149 38.6866 184.128 37.2167 184.818 35.5091C185.509 33.8015 185.853 31.9231 185.853 29.8755C185.853 27.828 185.509 25.9591 184.818 24.2707C184.128 22.5838 183.151 21.1124 181.887 19.8596C180.623 18.6084 179.156 17.6492 177.492 16.9869C175.826 16.323 174.015 15.9927 172.062 15.9927C170.11 15.9927 168.297 16.3246 166.633 16.9869C164.965 17.6508 163.5 18.6084 162.238 19.8596C160.975 21.1124 159.997 22.5806 159.306 24.2707C158.616 25.9591 158.272 27.8264 158.272 29.8755C158.272 31.9247 158.616 33.8015 159.306 35.5091C159.997 37.2167 160.974 38.6866 162.238 39.9202C163.502 41.1538 164.969 42.1098 166.633 42.7929C168.299 43.4759 170.11 43.8174 172.062 43.8174Z" fill="white"/>
<path d="M198.781 51.1012V8.70728H207.689V29.9329L205.218 29.0807L222.342 8.71047H233.491L216.539 28.9674L217.057 22.7082L233.837 51.1027H223.435L212.978 33.1774L207.692 39.4941V51.1027H198.783L198.781 51.1012Z" fill="white"/>
<path d="M239.206 51.1012V8.70728H267.993V16.39H248.112V26.007H266.844V33.6897H248.112V43.42H267.993V51.1027H239.206V51.1012Z" fill="white"/>
<path d="M146.125 69.8341L149.654 59.8948H151.621L155.151 69.8341H153.44L152.686 67.6062H148.604L147.822 69.8341H146.125ZM149.059 66.205H152.2L150.421 61.0007H150.866L149.059 66.205Z" fill="white"/>
<path d="M159.302 69.8341V59.8948H160.891V69.8341H159.302Z" fill="white"/>
<path d="M174.769 69.9936C174.133 69.9936 173.546 69.8787 173.011 69.6473C172.475 69.4159 172.018 69.0936 171.637 68.6786C171.254 68.2653 170.977 67.7913 170.809 67.2583L172.156 66.6981C172.399 67.3125 172.753 67.7833 173.22 68.1137C173.688 68.444 174.227 68.6084 174.836 68.6084C175.195 68.6084 175.507 68.5525 175.772 68.4424C176.038 68.3307 176.242 68.1743 176.39 67.9684C176.539 67.7642 176.612 67.528 176.612 67.2614C176.612 66.9056 176.508 66.6199 176.303 66.4012C176.095 66.1826 175.794 66.0166 175.399 65.9001L173.499 65.3128C172.745 65.0814 172.172 64.7255 171.78 64.2452C171.388 63.7664 171.194 63.2046 171.194 62.5631C171.194 62.0109 171.331 61.5225 171.605 61.0964C171.879 60.6687 172.26 60.3352 172.749 60.0958C173.239 59.8564 173.803 59.7351 174.439 59.7351C175.043 59.7351 175.59 59.8404 176.084 60.0495C176.577 60.2586 177.001 60.5474 177.358 60.9161C177.713 61.2863 177.972 61.7093 178.133 62.1912L176.813 62.7514C176.605 62.2263 176.296 61.8242 175.883 61.5433C175.47 61.264 174.989 61.1236 174.441 61.1236C174.108 61.1236 173.816 61.1794 173.566 61.2911C173.314 61.4028 173.118 61.5592 172.979 61.7651C172.839 61.9694 172.77 62.2104 172.77 62.4865C172.77 62.8072 172.874 63.0913 173.079 63.3403C173.285 63.5892 173.597 63.776 174.009 63.9004L175.775 64.4462C176.574 64.6856 177.176 65.0319 177.581 65.4804C177.986 65.9289 178.187 66.4874 178.187 67.1545C178.187 67.7067 178.042 68.1951 177.748 68.6212C177.458 69.0489 177.055 69.384 176.543 69.6282C176.032 69.874 175.439 69.9952 174.764 69.9952V69.9905L174.769 69.9936Z" fill="white"/>
<path d="M182.932 69.8341V59.8948H189.535V61.296H184.522V64.1511H189.263V65.5523H184.522V68.4345H189.535V69.8357H182.932V69.8341Z" fill="white"/>
<path d="M193.979 69.8341V59.8948H200.582V61.296H195.57V64.1511H200.311V65.5523H195.57V68.4345H200.582V69.8357H193.979V69.8341Z" fill="white"/>
<path d="M208.546 69.9936C207.91 69.9936 207.324 69.8787 206.788 69.6473C206.253 69.4159 205.795 69.0936 205.414 68.6786C205.031 68.2653 204.754 67.7913 204.587 67.2583L205.934 66.6981C206.176 67.3125 206.53 67.7833 206.997 68.1137C207.466 68.444 208.004 68.6084 208.613 68.6084C208.972 68.6084 209.284 68.5525 209.549 68.4424C209.815 68.3307 210.019 68.1743 210.169 67.9684C210.316 67.7642 210.391 67.528 210.391 67.2614C210.391 66.9056 210.287 66.6199 210.08 66.4012C209.873 66.1826 209.573 66.0166 209.178 65.9001L207.278 65.3128C206.523 65.0814 205.95 64.7255 205.559 64.2452C205.169 63.7664 204.974 63.2046 204.974 62.5631C204.974 62.0109 205.11 61.5225 205.385 61.0964C205.658 60.6687 206.04 60.3352 206.53 60.0958C207.019 59.8564 207.584 59.7351 208.22 59.7351C208.821 59.7351 209.371 59.8404 209.863 60.0495C210.357 60.2586 210.78 60.5474 211.135 60.9161C211.491 61.2863 211.749 61.7093 211.91 62.1912L210.59 62.7514C210.383 62.2263 210.074 61.8242 209.661 61.5433C209.248 61.264 208.768 61.1236 208.218 61.1236C207.885 61.1236 207.593 61.1794 207.343 61.2911C207.091 61.4028 206.895 61.5592 206.756 61.7651C206.616 61.9694 206.547 62.2104 206.547 62.4865C206.547 62.8072 206.651 63.0913 206.857 63.3403C207.062 63.5892 207.375 63.776 207.786 63.9004L209.552 64.4462C210.351 64.6856 210.953 65.0319 211.358 65.4804C211.763 65.9289 211.964 66.4874 211.964 67.1545C211.964 67.7067 211.819 68.1951 211.526 68.6212C211.236 69.0489 210.832 69.384 210.321 69.6282C209.809 69.874 209.216 69.9952 208.542 69.9952V69.9905L208.546 69.9936Z" fill="white"/>
<path d="M224.564 69.834V65.3639L221.141 59.8931H222.933L225.681 64.309H225.048L227.77 59.8931H229.576L226.153 65.3495V69.8324H224.564V69.834Z" fill="white"/>
<path d="M238.2 69.9936C237.473 69.9936 236.794 69.8643 236.164 69.6057C235.536 69.3472 234.989 68.9881 234.521 68.5237C234.053 68.0609 233.687 67.5183 233.424 66.8959C233.158 66.2735 233.027 65.592 233.027 64.8547C233.027 64.1174 233.156 63.4359 233.419 62.8119C233.679 62.1895 234.045 61.6469 234.516 61.1841C234.988 60.7229 235.534 60.3638 236.161 60.1101C236.786 59.8563 237.465 59.7302 238.201 59.7302C238.938 59.7302 239.618 59.8595 240.242 60.118C240.865 60.3766 241.413 60.7341 241.885 61.1921C242.357 61.6501 242.722 62.1911 242.984 62.8119C243.243 63.4359 243.374 64.1158 243.374 64.8547C243.374 65.5936 243.242 66.2735 242.977 66.8959C242.711 67.5199 242.344 68.0609 241.879 68.5237C241.412 68.9865 240.863 69.3472 240.235 69.6057C239.606 69.8643 238.928 69.9936 238.2 69.9936ZM238.2 68.5524C238.721 68.5524 239.199 68.4583 239.634 68.2732C240.07 68.0864 240.451 67.8263 240.771 67.4928C241.093 67.1592 241.345 66.7682 241.519 66.3198C241.694 65.8713 241.782 65.3846 241.782 64.8595C241.782 64.3344 241.694 63.8605 241.519 63.412C241.345 62.9635 241.095 62.571 240.771 62.231C240.447 61.8943 240.07 61.6326 239.634 61.4506C239.199 61.2687 238.721 61.1761 238.2 61.1761C237.678 61.1761 237.202 61.2687 236.765 61.4506C236.33 61.6326 235.949 61.8943 235.628 62.231C235.305 62.5694 235.055 62.9635 234.879 63.412C234.705 63.8605 234.616 64.344 234.616 64.8595C234.616 65.375 234.704 65.8713 234.879 66.3198C235.055 66.7682 235.305 67.1592 235.628 67.4928C235.952 67.8263 236.333 68.0864 236.773 68.2732C237.215 68.4599 237.69 68.5524 238.203 68.5524H238.201H238.2Z" fill="white"/>
<path d="M251.875 69.9937C251.129 69.9937 250.465 69.8389 249.88 69.5261C249.295 69.2149 248.842 68.7872 248.518 68.2446C248.195 67.702 248.034 67.0844 248.034 66.3902V59.8916H249.623V66.3231C249.623 66.7588 249.72 67.145 249.913 67.4834C250.106 67.8217 250.372 68.0834 250.709 68.2718C251.045 68.4585 251.432 68.551 251.874 68.551C252.315 68.551 252.714 68.4569 253.046 68.2718C253.379 68.085 253.642 67.8233 253.835 67.4834C254.028 67.145 254.123 66.7588 254.123 66.3231V59.8916H255.712V66.3902C255.712 67.0844 255.55 67.702 255.228 68.2446C254.904 68.7872 254.453 69.2149 253.874 69.5261C253.294 69.8373 252.628 69.9937 251.874 69.9937H251.875Z" fill="white"/>
</g>
<defs>
<linearGradient id="paint0_linear_21_1183" x1="29.2119" y1="0.0111714" x2="30.3543" y2="59.6137" gradientUnits="userSpaceOnUse">
<stop stop-color="#40FFB1"/>
<stop offset="1" stop-color="#0A9E46"/>
</linearGradient>
<linearGradient id="paint1_linear_21_1183" x1="46.4188" y1="1.12831" x2="13.8198" y2="57.2068" gradientUnits="userSpaceOnUse">
<stop stop-color="#40FFB1"/>
<stop offset="1" stop-color="#0A9E46"/>
</linearGradient>
<linearGradient id="paint2_linear_21_1183" x1="58.5385" y1="12.4497" x2="3.60126" y2="45.5447" gradientUnits="userSpaceOnUse">
<stop stop-color="#40FFB1"/>
<stop offset="1" stop-color="#0A9E46"/>
</linearGradient>
<linearGradient id="paint3_linear_21_1183" x1="59.5604" y1="29.8133" x2="0.00488281" y2="29.8133" gradientUnits="userSpaceOnUse">
<stop stop-color="#40FFB1"/>
<stop offset="1" stop-color="#0A9E46"/>
</linearGradient>
<linearGradient id="paint4_linear_21_1183" x1="57.327" y1="46.2623" x2="2.58168" y2="13.6424" gradientUnits="userSpaceOnUse">
<stop stop-color="#40FFB1"/>
<stop offset="1" stop-color="#0A9E46"/>
</linearGradient>
<linearGradient id="paint5_linear_21_1183" x1="44.8071" y1="56.0996" x2="14.7818" y2="3.68732" gradientUnits="userSpaceOnUse">
<stop stop-color="#40FFB1"/>
<stop offset="1" stop-color="#0A9E46"/>
</linearGradient>
<clipPath id="clip0_21_1183">
<rect width="268" height="70" fill="white"/>
</clipPath>
</defs>
</svg>
